<svg xmlns="http://www.w3.org/2000/svg" xmlns:xlink="http://www.w3.org/1999/xlink" viewBox="0 0 341 142.79"><defs><style>.cls-1{font-size:97.52px;fill:#f70000;letter-spacing:-0.04em;}.cls-1,.cls-5,.cls-8,.cls-9{font-family:MyriadPro-Bold, Myriad Pro;font-weight:700;}.cls-2{letter-spacing:-0.03em;}.cls-3{font-size:119.8px;letter-spacing:-0.03em;}.cls-4{fill:url(#linear-gradient);}.cls-5{font-size:22.52px;fill:#232f3f;}.cls-6{letter-spacing:0em;}.cls-7{fill:#0067f9;}.cls-8{font-size:120.69px;}.cls-8,.cls-9{fill:#fff;}.cls-9{font-size:18px;}.cls-10{letter-spacing:-0.06em;}</style><linearGradient id="linear-gradient" x1="5.56" y1="59.91" x2="196.6" y2="59.91" gradientUnits="userSpaceOnUse"><stop offset="0" stop-color="#0067f9"/><stop offset="0.03" stop-color="#006af9"/><stop offset="0.69" stop-color="#00abfd"/><stop offset="1" stop-color="#00c4ff"/></linearGradient></defs><g id="Layer_2" data-name="Layer 2"><g id="Layer_6" data-name="Layer 6"><text class="cls-1" transform="translate(0 100.28)">r<tspan class="cls-2" x="33.35" y="0">et</tspan><tspan class="cls-3" x="114.78" y="0">O</tspan></text><path class="cls-4" d="M6,68.29c0-7-.2-11.6-.39-15.7H18.33l.49,8.78h.39c2.44-6.93,8.29-9.85,12.87-9.85a15.63,15.63,0,0,1,3.12.19V65.66a20.79,20.79,0,0,0-4-.39c-5.46,0-9.17,2.92-10.15,7.51a17.81,17.81,0,0,0-.29,3.31v24.19H6Z"/><path class="cls-4" d="M50.71,81.16c.49,6.15,6.53,9.07,13.46,9.07a41.91,41.91,0,0,0,13.16-2l2,10A47,47,0,0,1,62,101.25c-16.19,0-25.45-9.36-25.45-24.28,0-12.09,7.51-25.45,24.09-25.45,15.4,0,21.26,12,21.26,23.79a35.62,35.62,0,0,1-.49,5.85ZM68.17,71c0-3.61-1.57-9.65-8.39-9.65C53.54,61.37,51,67,50.61,71Z"/><path class="cls-4" d="M104.44,38.94V52.59h10.63V63.51H104.44V80.77c0,5.76,1.37,8.39,5.85,8.39a24.6,24.6,0,0,0,4.39-.39l.1,11.21a29.05,29.05,0,0,1-9.65,1.27c-4.78,0-8.78-1.66-11.12-4.09-2.73-2.83-4.1-7.42-4.1-14.14V63.51H83.57V52.59h6.34V42.25Z"/><path class="cls-4" d="M196.6,59.07c0,26.47-16,42.52-39.65,42.52-24,0-38-18.08-38-41.09,0-24.19,15.45-42.28,39.29-42.28C183.06,18.22,196.6,36.78,196.6,59.07Zm-58.34,1.08c0,15.81,7.43,26.95,19.65,26.95s19.4-11.74,19.4-27.43c0-14.5-6.95-27-19.52-27C145.45,32.71,138.26,44.45,138.26,60.15Z"/><text class="cls-5" transform="translate(5.43 131.56)">R<tspan class="cls-6" x="13.35" y="0">E</tspan><tspan x="25.49" y="0">TRIBUSI ONLINE</tspan></text></g><g id="Layer_7" data-name="Layer 7"><rect class="cls-7" x="211" y="12.79" width="130" height="130" rx="25"/><text class="cls-8" transform="translate(240.94 108.22)">P</text><text class="cls-9" transform="translate(246.64 130.43)"><tspan class="cls-10">P</tspan><tspan x="9.38" y="0">ARKIR</tspan></text></g></g></svg>